<svg width="20" height="21" viewBox="0 0 20 21" fill="none" xmlns="http://www.w3.org/2000/svg">
<path d="M1.66669 3.47323C1.66669 3.00652 1.66669 2.77316 1.75751 2.5949C1.83741 2.4381 1.96489 2.31061 2.12169 2.23072C2.29995 2.13989 2.53331 2.13989 3.00002 2.13989H7.00002C7.46673 2.13989 7.70009 2.13989 7.87835 2.23072C8.03515 2.31061 8.16263 2.4381 8.24253 2.5949C8.33335 2.77316 8.33335 3.00652 8.33335 3.47323V7.47323C8.33335 7.93994 8.33335 8.17329 8.24253 8.35155C8.16263 8.50835 8.03515 8.63584 7.87835 8.71573C7.70009 8.80656 7.46673 8.80656 7.00002 8.80656H3.00002C2.53331 8.80656 2.29995 8.80656 2.12169 8.71573C1.96489 8.63584 1.83741 8.50835 1.75751 8.35155C1.66669 8.17329 1.66669 7.93994 1.66669 7.47323V3.47323Z" stroke="white" stroke-width="1.5"/>
<path d="M1.66669 13.4732C1.66669 13.0065 1.66669 12.7732 1.75751 12.5949C1.83741 12.4381 1.96489 12.3106 2.12169 12.2307C2.29995 12.1399 2.53331 12.1399 3.00002 12.1399H7.00002C7.46673 12.1399 7.70009 12.1399 7.87835 12.2307C8.03515 12.3106 8.16263 12.4381 8.24253 12.5949C8.33335 12.7732 8.33335 13.0065 8.33335 13.4732V17.4732C8.33335 17.9399 8.33335 18.1733 8.24253 18.3515C8.16263 18.5084 8.03515 18.6358 7.87835 18.7157C7.70009 18.8066 7.46673 18.8066 7.00002 18.8066H3.00002C2.53331 18.8066 2.29995 18.8066 2.12169 18.7157C1.96489 18.6358 1.83741 18.5084 1.75751 18.3515C1.66669 18.1733 1.66669 17.9399 1.66669 17.4732V13.4732Z" stroke="white" stroke-width="1.5"/>
<path d="M11.6667 3.47323C11.6667 3.00652 11.6667 2.77316 11.7575 2.5949C11.8374 2.4381 11.9649 2.31061 12.1217 2.23072C12.3 2.13989 12.5333 2.13989 13 2.13989H17C17.4667 2.13989 17.7001 2.13989 17.8783 2.23072C18.0351 2.31061 18.1626 2.4381 18.2425 2.5949C18.3334 2.77316 18.3334 3.00652 18.3334 3.47323V7.47323C18.3334 7.93994 18.3334 8.17329 18.2425 8.35155C18.1626 8.50835 18.0351 8.63584 17.8783 8.71573C17.7001 8.80656 17.4667 8.80656 17 8.80656H13C12.5333 8.80656 12.3 8.80656 12.1217 8.71573C11.9649 8.63584 11.8374 8.50835 11.7575 8.35155C11.6667 8.17329 11.6667 7.93994 11.6667 7.47323V3.47323Z" stroke="white" stroke-width="1.5"/>
<path d="M11.6667 13.4732C11.6667 13.0065 11.6667 12.7732 11.7575 12.5949C11.8374 12.4381 11.9649 12.3106 12.1217 12.2307C12.3 12.1399 12.5333 12.1399 13 12.1399H17C17.4667 12.1399 17.7001 12.1399 17.8783 12.2307C18.0351 12.3106 18.1626 12.4381 18.2425 12.5949C18.3334 12.7732 18.3334 13.0065 18.3334 13.4732V17.4732C18.3334 17.9399 18.3334 18.1733 18.2425 18.3515C18.1626 18.5084 18.0351 18.6358 17.8783 18.7157C17.7001 18.8066 17.4667 18.8066 17 18.8066H13C12.5333 18.8066 12.3 18.8066 12.1217 18.7157C11.9649 18.6358 11.8374 18.5084 11.7575 18.3515C11.6667 18.1733 11.6667 17.9399 11.6667 17.4732V13.4732Z" stroke="white" stroke-width="1.5"/>
</svg>
