<svg width="21" height="21" viewBox="0 0 21 21" fill="none" xmlns="http://www.w3.org/2000/svg">
<g clip-path="url(#clip0_69_1777)">
<path d="M3.65834 8.16731H8.66501C9.10748 8.16731 9.53182 8.34308 9.8447 8.65595C10.1576 8.96883 10.3333 9.39317 10.3333 9.83564V18.1798C10.3333 18.6223 10.1576 19.0466 9.8447 19.3595C9.53182 19.6724 9.10748 19.8481 8.66501 19.8481H3.65834C2.73667 19.8481 1.99001 19.1015 1.99001 18.1798V9.83564C1.99001 9.39317 2.16578 8.96883 2.47865 8.65595C2.79152 8.34308 3.21587 8.16731 3.65834 8.16731ZM3.65834 8.16731H8.66667V6.31064C8.66656 6.22565 8.6497 6.14152 8.61705 6.06305C8.5844 5.98458 8.5366 5.91331 8.47638 5.85333C8.41617 5.79335 8.34472 5.74582 8.26613 5.71348C8.18753 5.68113 8.10333 5.66459 8.01834 5.66481H4.30501C4.13364 5.66481 3.96929 5.73283 3.84804 5.85392C3.72679 5.97501 3.65856 6.13928 3.65834 6.31064V8.16731ZM12 2.76648L11.6275 2.02064C11.4892 1.74356 11.2765 1.51048 11.0132 1.34753C10.7499 1.18459 10.4463 1.09823 10.1367 1.09814H2.82417M6.16167 12.339V15.6765M4.49334 14.0081H7.83001M6.16167 1.09814V5.66481M18.6767 12.7565C18.6767 13.5309 18.369 14.2736 17.8214 14.8212C17.2738 15.3688 16.5311 15.6765 15.7567 15.6765C14.9822 15.6765 14.2395 15.3688 13.6919 14.8212C13.1443 14.2736 12.8367 13.5309 12.8367 12.7565C12.8367 10.5665 15.7533 6.91564 15.7533 6.91564C15.7533 6.91564 18.6767 10.5665 18.6767 12.7565Z" stroke="#171E1D" stroke-width="1.5" stroke-linecap="round" stroke-linejoin="round"/>
</g>
<defs>
<clipPath id="clip0_69_1777">
<rect width="20" height="20" fill="white" transform="translate(0.333344 0.473145)"/>
</clipPath>
</defs>
</svg>
