<svg width="60" height="61" viewBox="0 0 60 61" fill="none" xmlns="http://www.w3.org/2000/svg">
<rect y="0.473145" width="60" height="60" rx="8" fill="#DDF4F0"/>
<path d="M19.25 18.4731C18.388 18.4731 17.5614 18.8156 16.9519 19.425C16.3424 20.0345 16 20.8612 16 21.7231V37.9731C16 39.1666 16.4741 40.3112 17.318 41.1551C18.1619 41.999 19.3065 42.4731 20.5 42.4731H25.5C26.6935 42.4731 27.8381 41.999 28.682 41.1551C29.5259 40.3112 30 39.1666 30 37.9731V26.4731H42V41.4731C42 41.7384 42.1054 41.9927 42.2929 42.1803C42.4804 42.3678 42.7348 42.4731 43 42.4731C43.2652 42.4731 43.5196 42.3678 43.7071 42.1803C43.8946 41.9927 44 41.7384 44 41.4731V21.7231C44 20.8612 43.6576 20.0345 43.0481 19.425C42.4386 18.8156 41.612 18.4731 40.75 18.4731H19.25ZM18 26.4731H28V37.9731C28 38.6362 27.7366 39.2721 27.2678 39.7409C26.7989 40.2098 26.163 40.4731 25.5 40.4731H20.5C19.837 40.4731 19.2011 40.2098 18.7322 39.7409C18.2634 39.2721 18 38.6362 18 37.9731V26.4731ZM18 24.4731V21.7231C18 21.0331 18.56 20.4731 19.25 20.4731H40.75C41.44 20.4731 42 21.0331 42 21.7231V24.4731H18ZM21 29.4731C20.7348 29.4731 20.4804 29.5785 20.2929 29.766C20.1054 29.9536 20 30.2079 20 30.4731C20 30.7384 20.1054 30.9927 20.2929 31.1803C20.4804 31.3678 20.7348 31.4731 21 31.4731H25C25.2652 31.4731 25.5196 31.3678 25.7071 31.1803C25.8946 30.9927 26 30.7384 26 30.4731C26 30.2079 25.8946 29.9536 25.7071 29.766C25.5196 29.5785 25.2652 29.4731 25 29.4731H21Z" fill="#00C29F"/>
</svg>
