<svg width="60" height="61" viewBox="0 0 60 61" fill="none" xmlns="http://www.w3.org/2000/svg">
<rect y="0.473145" width="60" height="60" rx="8" fill="#DDF4F0"/>
<path d="M30.0002 42.1757H20.3629C19.6326 42.1757 18.9322 41.8856 18.4158 41.3692C17.8994 40.8528 17.6093 40.1524 17.6093 39.4222V22.901C17.6093 22.1707 17.8994 21.4703 18.4158 20.9539C18.9322 20.4376 19.6326 20.1475 20.3629 20.1475H36.8841C37.6143 20.1475 38.3147 20.4376 38.8311 20.9539C39.3475 21.4703 39.6376 22.1707 39.6376 22.901V31.85M34.1305 17.3939V22.901M23.1164 17.3939V22.901M17.6093 28.408H39.6376M42.3911 43.5525L35.5073 36.6686M35.5073 43.5525L42.3911 36.6686" stroke="#00C29F" stroke-width="2" stroke-linecap="round" stroke-linejoin="round"/>
</svg>
