<svg width="36" height="37" viewBox="0 0 36 37" fill="none" xmlns="http://www.w3.org/2000/svg">
<circle cx="18" cy="18.4731" r="17.5" fill="white" stroke="#E8ECF2"/>
<path fill-rule="evenodd" clip-rule="evenodd" d="M17.9945 13.5991C16.3417 11.673 13.5856 11.1549 11.5148 12.9186C9.44402 14.6823 9.15248 17.6312 10.7787 19.7172C12.1308 21.4515 16.2226 25.1094 17.5637 26.2933C17.7138 26.4258 17.7888 26.492 17.8763 26.518C17.9527 26.5407 18.0362 26.5407 18.1126 26.518C18.2001 26.492 18.2751 26.4258 18.4252 26.2933C19.7663 25.1094 23.8581 21.4515 25.2102 19.7172C26.8364 17.6312 26.5805 14.6638 24.4741 12.9186C22.3677 11.1734 19.6472 11.673 17.9945 13.5991Z" stroke="#171E1D" stroke-width="1.5" stroke-linecap="round" stroke-linejoin="round"/>
</svg>
