<svg width="19" height="20" viewBox="0 0 19 20" fill="none" xmlns="http://www.w3.org/2000/svg">
<g clip-path="url(#clip0_69_1199)">
<path d="M16.4339 19.1747C16.922 19.6629 17.7135 19.6629 18.2017 19.1747C18.6898 18.6866 18.6898 17.8951 18.2017 17.407L16.4339 19.1747ZM13.3086 9.09346C13.3086 11.9588 10.9857 14.2816 8.12037 14.2816V16.7816C12.3664 16.7816 15.8086 13.3395 15.8086 9.09346H13.3086ZM8.12037 14.2816C5.25502 14.2816 2.93219 11.9588 2.93219 9.09346H0.43219C0.43219 13.3395 3.87431 16.7816 8.12037 16.7816V14.2816ZM2.93219 9.09346C2.93219 6.2281 5.25502 3.90527 8.12037 3.90527V1.40527C3.87431 1.40527 0.43219 4.84739 0.43219 9.09346H2.93219ZM8.12037 3.90527C10.9857 3.90527 13.3086 6.2281 13.3086 9.09346H15.8086C15.8086 4.84739 12.3664 1.40527 8.12037 1.40527V3.90527ZM11.8352 14.576L16.4339 19.1747L18.2017 17.407L13.603 12.8083L11.8352 14.576Z" fill="white"/>
</g>
<defs>
<clipPath id="clip0_69_1199">
<rect width="19" height="19" fill="white" transform="translate(0 0.973145)"/>
</clipPath>
</defs>
</svg>
