<svg width="21" height="21" viewBox="0 0 21 21" fill="none" xmlns="http://www.w3.org/2000/svg">
<path d="M10.651 0.89624C7.91363 0.89624 5.68662 3.12325 5.68662 5.86059V8.8392H4.69375C3.59861 8.8392 2.70801 9.72981 2.70801 10.8249V18.7679C2.70801 19.863 3.59861 20.7536 4.69375 20.7536H16.6082C17.7033 20.7536 18.5939 19.863 18.5939 18.7679V10.8249C18.5939 9.72981 17.7033 8.8392 16.6082 8.8392H15.6153V5.86059C15.6153 3.12325 13.3883 0.89624 10.651 0.89624ZM16.6082 10.8249L16.6102 18.7679H4.69375V10.8249H16.6082ZM7.67236 8.8392V5.86059C7.67236 4.21838 9.00876 2.88198 10.651 2.88198C12.2932 2.88198 13.6296 4.21838 13.6296 5.86059V8.8392H7.67236Z" fill="#787878"/>
</svg>
