<svg width="21" height="21" viewBox="0 0 21 21" fill="none" xmlns="http://www.w3.org/2000/svg">
<path d="M19.3569 16.439C18.883 15.3164 18.1952 14.2966 17.3318 13.4365C16.4711 12.574 15.4515 11.8863 14.3293 11.4114C14.3193 11.4064 14.3092 11.4039 14.2992 11.3988C15.8645 10.2682 16.8821 8.42648 16.8821 6.34859C16.8821 2.90638 14.0931 0.117432 10.6509 0.117432C7.2087 0.117432 4.41976 2.90638 4.41976 6.34859C4.41976 8.42648 5.43734 10.2682 7.00267 11.4014C6.99262 11.4064 6.98257 11.4089 6.97252 11.4139C5.84689 11.8888 4.83684 12.5697 3.97001 13.439C3.10747 14.2998 2.41977 15.3194 1.94488 16.4416C1.47835 17.5402 1.22675 18.718 1.20368 19.9114C1.20301 19.9382 1.20771 19.9649 1.21751 19.9899C1.22731 20.0148 1.24201 20.0376 1.26074 20.0568C1.27947 20.076 1.30186 20.0913 1.32658 20.1017C1.3513 20.1121 1.37786 20.1174 1.40468 20.1174H2.91222C3.02277 20.1174 3.11071 20.0295 3.11322 19.9215C3.16348 17.9818 3.94237 16.1652 5.31925 14.7883C6.74388 13.3637 8.63584 12.5797 10.6509 12.5797C12.666 12.5797 14.5579 13.3637 15.9826 14.7883C17.3595 16.1652 18.1383 17.9818 18.1886 19.9215C18.1911 20.032 18.2791 20.1174 18.3896 20.1174H19.8971C19.924 20.1174 19.9505 20.1121 19.9752 20.1017C20 20.0913 20.0224 20.076 20.0411 20.0568C20.0598 20.0376 20.0745 20.0148 20.0843 19.9899C20.0941 19.9649 20.0988 19.9382 20.0981 19.9114C20.073 18.7104 19.8243 17.5421 19.3569 16.439ZM10.6509 10.6702C9.49765 10.6702 8.41222 10.2204 7.59564 9.40386C6.77905 8.58728 6.3293 7.50185 6.3293 6.34859C6.3293 5.19532 6.77905 4.10989 7.59564 3.29331C8.41222 2.47673 9.49765 2.02698 10.6509 2.02698C11.8042 2.02698 12.8896 2.47673 13.7062 3.29331C14.5228 4.10989 14.9725 5.19532 14.9725 6.34859C14.9725 7.50185 14.5228 8.58728 13.7062 9.40386C12.8896 10.2204 11.8042 10.6702 10.6509 10.6702Z" fill="#787878"/>
</svg>
