<svg width="21" height="21" viewBox="0 0 21 21" fill="none" xmlns="http://www.w3.org/2000/svg">
<path d="M19.3569 17.2657C18.883 16.143 18.1952 15.1232 17.3318 14.2632C16.4711 13.4006 15.4515 12.7129 14.3293 12.2381C14.3193 12.233 14.3092 12.2305 14.2992 12.2255C15.8645 11.0948 16.8821 9.25314 16.8821 7.17525C16.8821 3.73304 14.0931 0.944092 10.6509 0.944092C7.2087 0.944092 4.41976 3.73304 4.41976 7.17525C4.41976 9.25314 5.43734 11.0948 7.00267 12.228C6.99262 12.233 6.98257 12.2355 6.97252 12.2406C5.84689 12.7154 4.83684 13.3964 3.97001 14.2657C3.10747 15.1264 2.41977 16.146 1.94488 17.2682C1.47835 18.3668 1.22675 19.5447 1.20368 20.7381C1.20301 20.7649 1.20771 20.7916 1.21751 20.8165C1.22731 20.8415 1.24201 20.8643 1.26074 20.8835C1.27947 20.9027 1.30186 20.9179 1.32658 20.9283C1.3513 20.9387 1.37786 20.9441 1.40468 20.9441H2.91222C3.02277 20.9441 3.11071 20.8562 3.11322 20.7481C3.16348 18.8084 3.94237 16.9918 5.31925 15.6149C6.74388 14.1903 8.63584 13.4064 10.6509 13.4064C12.666 13.4064 14.5579 14.1903 15.9826 15.6149C17.3595 16.9918 18.1383 18.8084 18.1886 20.7481C18.1911 20.8587 18.2791 20.9441 18.3896 20.9441H19.8971C19.924 20.9441 19.9505 20.9387 19.9752 20.9283C20 20.9179 20.0224 20.9027 20.0411 20.8835C20.0598 20.8643 20.0745 20.8415 20.0843 20.8165C20.0941 20.7916 20.0988 20.7649 20.0981 20.7381C20.073 19.5371 19.8243 18.3687 19.3569 17.2657ZM10.6509 11.4969C9.49765 11.4969 8.41222 11.0471 7.59564 10.2305C6.77905 9.41394 6.3293 8.32851 6.3293 7.17525C6.3293 6.02198 6.77905 4.93655 7.59564 4.11997C8.41222 3.30339 9.49765 2.85364 10.6509 2.85364C11.8042 2.85364 12.8896 3.30339 13.7062 4.11997C14.5228 4.93655 14.9725 6.02198 14.9725 7.17525C14.9725 8.32851 14.5228 9.41394 13.7062 10.2305C12.8896 11.0471 11.8042 11.4969 10.6509 11.4969Z" fill="#787878"/>
</svg>
