<svg width="21" height="21" viewBox="0 0 21 21" fill="none" xmlns="http://www.w3.org/2000/svg">
<path d="M10.651 0.60376C7.91363 0.60376 5.68662 2.83077 5.68662 5.56811V8.54672H4.69375C3.59861 8.54672 2.70801 9.43733 2.70801 10.5325V18.4754C2.70801 19.5706 3.59861 20.4612 4.69375 20.4612H16.6082C17.7033 20.4612 18.5939 19.5706 18.5939 18.4754V10.5325C18.5939 9.43733 17.7033 8.54672 16.6082 8.54672H15.6153V5.56811C15.6153 2.83077 13.3883 0.60376 10.651 0.60376ZM16.6082 10.5325L16.6102 18.4754H4.69375V10.5325H16.6082ZM7.67236 8.54672V5.56811C7.67236 3.9259 9.00876 2.5895 10.651 2.5895C12.2932 2.5895 13.6296 3.9259 13.6296 5.56811V8.54672H7.67236Z" fill="#787878"/>
</svg>
