<svg width="21" height="21" viewBox="0 0 21 21" fill="none" xmlns="http://www.w3.org/2000/svg">
<path d="M10.651 0.7229C7.91363 0.7229 5.68662 2.94991 5.68662 5.68725V8.66586H4.69375C3.59861 8.66586 2.70801 9.55647 2.70801 10.6516V18.5946C2.70801 19.6897 3.59861 20.5803 4.69375 20.5803H16.6082C17.7033 20.5803 18.5939 19.6897 18.5939 18.5946V10.6516C18.5939 9.55647 17.7033 8.66586 16.6082 8.66586H15.6153V5.68725C15.6153 2.94991 13.3883 0.7229 10.651 0.7229ZM16.6082 10.6516L16.6102 18.5946H4.69375V10.6516H16.6082ZM7.67236 8.66586V5.68725C7.67236 4.04504 9.00876 2.70864 10.651 2.70864C12.2932 2.70864 13.6296 4.04504 13.6296 5.68725V8.66586H7.67236Z" fill="#787878"/>
</svg>
