<svg width="20" height="21" viewBox="0 0 20 21" fill="none" xmlns="http://www.w3.org/2000/svg">
<path d="M13.541 12.3599C12.5686 11.4954 11.3127 11.0179 10.0115 11.0179C8.71039 11.0179 7.4545 11.4954 6.48203 12.3599C6.39986 12.431 6.33263 12.5177 6.28426 12.615C6.23588 12.7123 6.20732 12.8183 6.20023 12.9267C6.19315 13.0351 6.20767 13.1439 6.24297 13.2467C6.27827 13.3494 6.33363 13.4442 6.40585 13.5254C6.47807 13.6066 6.5657 13.6726 6.66365 13.7197C6.76161 13.7667 6.86793 13.7938 6.97645 13.7994C7.08497 13.805 7.19353 13.789 7.29581 13.7523C7.39809 13.7156 7.49206 13.659 7.57227 13.5857C8.24438 12.9883 9.11233 12.6584 10.0115 12.6584C10.9107 12.6584 11.7787 12.9883 12.4508 13.5857C12.6134 13.7302 12.8269 13.8043 13.0441 13.7915C13.2613 13.7787 13.4646 13.6802 13.6092 13.5175C13.7538 13.3548 13.8278 13.1414 13.815 12.9242C13.8022 12.7069 13.7037 12.5037 13.541 12.3591V12.3599Z" fill="#171E1D"/>
<path d="M10.0109 7.64893C7.80849 7.6459 5.6878 8.48299 4.08124 9.98956C3.9999 10.0624 3.93393 10.1508 3.88719 10.2495C3.84045 10.3482 3.81389 10.4552 3.80906 10.5643C3.80423 10.6734 3.82124 10.7824 3.85907 10.8848C3.89691 10.9872 3.95482 11.0811 4.02941 11.1609C4.104 11.2406 4.19376 11.3047 4.29343 11.3493C4.39311 11.3939 4.50069 11.4182 4.60986 11.4207C4.71903 11.4232 4.82761 11.4038 4.92921 11.3638C5.03082 11.3238 5.12341 11.2639 5.20156 11.1876C6.50604 9.96802 8.22514 9.28957 10.0109 9.28957C11.7967 9.28957 13.5158 9.96802 14.8203 11.1876C14.8985 11.2639 14.991 11.3238 15.0926 11.3638C15.1943 11.4038 15.3028 11.4232 15.412 11.4207C15.5212 11.4182 15.6288 11.3939 15.7284 11.3493C15.8281 11.3047 15.9179 11.2406 15.9925 11.1609C16.067 11.0811 16.125 10.9872 16.1628 10.8848C16.2006 10.7824 16.2176 10.6734 16.2128 10.5643C16.208 10.4552 16.1814 10.3482 16.1347 10.2495C16.0879 10.1508 16.022 10.0624 15.9406 9.98956C14.3341 8.48299 12.2134 7.6459 10.0109 7.64893Z" fill="#171E1D"/>
<path d="M18.0469 7.34267C15.8352 5.36938 12.9749 4.27881 10.0109 4.27881C7.04696 4.27881 4.1866 5.36938 1.97499 7.34267C1.89187 7.41367 1.82378 7.50057 1.77472 7.59826C1.72566 7.69594 1.69662 7.80245 1.68931 7.91152C1.68199 8.02059 1.69655 8.13003 1.73213 8.23339C1.76771 8.33675 1.82359 8.43196 1.89649 8.51342C1.96938 8.59488 2.05783 8.66095 2.15662 8.70775C2.25541 8.75455 2.36256 8.78113 2.47177 8.78592C2.58098 8.79072 2.69005 8.77365 2.79256 8.7357C2.89508 8.69775 2.98898 8.63969 3.06874 8.56494C4.97953 6.86079 7.45041 5.91902 10.0107 5.91902C12.5711 5.91902 15.0419 6.86079 16.9527 8.56494C17.1149 8.70998 17.3281 8.78465 17.5453 8.77252C17.7626 8.7604 17.9661 8.66247 18.1111 8.50029C18.2562 8.3381 18.3308 8.12494 18.3187 7.9077C18.3066 7.69046 18.2087 7.48693 18.0465 7.34189L18.0469 7.34267Z" fill="#171E1D"/>
<path d="M10.0109 17.0907C10.7013 17.0907 11.2609 16.5311 11.2609 15.8407C11.2609 15.1503 10.7013 14.5907 10.0109 14.5907C9.32057 14.5907 8.76093 15.1503 8.76093 15.8407C8.76093 16.5311 9.32057 17.0907 10.0109 17.0907Z" fill="#171E1D"/>
</svg>
