<svg width="20" height="21" viewBox="0 0 20 21" fill="none" xmlns="http://www.w3.org/2000/svg">
<path d="M7.5 7.13973V11.3064M12.5 9.63973V13.8064M3.86682 16.834L6.43303 14.6955C7.0511 14.1804 7.9489 14.1804 8.56697 14.6955L11.433 17.0838C12.0511 17.5989 12.9489 17.5989 13.567 17.0838L16.9003 14.3061C17.2803 13.9894 17.5 13.5203 17.5 13.0257V4.75219C17.5 4.04565 16.676 3.65969 16.1332 4.112L13.567 6.25051C12.9489 6.76557 12.0511 6.76557 11.433 6.25051L8.56697 3.86213C7.9489 3.34706 7.0511 3.34706 6.43303 3.86213L3.09969 6.63991C2.7197 6.95656 2.5 7.42564 2.5 7.92027V16.1938C2.5 16.9003 3.32405 17.2863 3.86682 16.834Z" stroke="#171E1D" stroke-width="1.5" stroke-linecap="round"/>
</svg>
