<svg width="21" height="21" viewBox="0 0 21 21" fill="none" xmlns="http://www.w3.org/2000/svg">
<path d="M3.66667 11.9731C3.66667 11.0704 3.86806 10.1779 4.27084 9.29564C4.67362 8.41342 5.18056 7.56981 5.79167 6.76481C6.40278 5.95926 7.06612 5.20231 7.78167 4.49398C8.49723 3.78564 9.16028 3.16064 9.77084 2.61898C9.85417 2.54953 9.94445 2.49759 10.0417 2.46314C10.1389 2.4287 10.2361 2.4112 10.3333 2.41064C10.4444 2.41064 10.545 2.42814 10.635 2.46314C10.725 2.49814 10.805 2.55009 10.875 2.61898C11.9583 3.57731 13.0383 4.64676 14.115 5.82731C15.1917 7.00787 15.9936 8.28564 16.5208 9.66064H14.7083C14.3195 8.86898 13.7639 8.03203 13.0417 7.14981C12.3195 6.26759 11.4167 5.3337 10.3333 4.34814C8.68056 5.86203 7.43417 7.25787 6.59417 8.53565C5.75417 9.81342 5.33389 10.9593 5.33334 11.9731C5.33334 13.4593 5.80556 14.692 6.75001 15.6715C7.69445 16.6509 8.88889 17.1404 10.3333 17.1398V18.8065C8.43056 18.8065 6.84362 18.1537 5.57251 16.8481C4.30139 15.5426 3.66612 13.9176 3.66667 11.9731ZM13.2292 18.9523C13.0764 19.0218 12.92 19.0254 12.76 18.9631C12.6 18.9009 12.4856 18.7931 12.4167 18.6398L12.3125 18.4106C12.2014 18.1745 12.1214 17.9281 12.0725 17.6715C12.0236 17.4148 11.9994 17.1543 12 16.8898C12 16.5843 12.0347 16.2823 12.1042 15.984C12.1736 15.6856 12.2778 15.3973 12.4167 15.119C12.5278 14.8829 12.625 14.6434 12.7083 14.4006C12.7917 14.1579 12.8333 13.9043 12.8333 13.6398C12.8333 13.4315 12.8089 13.2301 12.76 13.0356C12.7111 12.8412 12.6453 12.6468 12.5625 12.4523L12.5417 12.4106C12.4722 12.2579 12.4686 12.0981 12.5308 11.9315C12.5931 11.7648 12.7008 11.6468 12.8542 11.5773C13.0069 11.5079 13.1631 11.5045 13.3225 11.5673C13.4819 11.6301 13.5967 11.7376 13.6667 11.8898L13.7708 12.0773C13.882 12.3134 13.962 12.5634 14.0108 12.8273C14.0597 13.0912 14.0839 13.362 14.0833 13.6398C14.0833 13.9454 14.0486 14.244 13.9792 14.5356C13.9097 14.8273 13.8056 15.112 13.6667 15.3898C13.5556 15.6259 13.4583 15.869 13.375 16.119C13.2917 16.369 13.25 16.6259 13.25 16.8898C13.25 17.0843 13.2708 17.2754 13.3125 17.4631C13.3542 17.6509 13.4167 17.8348 13.5 18.0148L13.5417 18.119C13.6111 18.2718 13.6147 18.4315 13.5525 18.5981C13.4903 18.7648 13.3825 18.8829 13.2292 18.9523ZM15.7292 18.9523C15.5764 19.0218 15.42 19.0254 15.26 18.9631C15.1 18.9009 14.9856 18.7931 14.9167 18.6398L14.8125 18.4106C14.7014 18.1745 14.6214 17.9281 14.5725 17.6715C14.5236 17.4148 14.4994 17.1543 14.5 16.8898C14.5 16.5843 14.5347 16.2823 14.6042 15.984C14.6736 15.6856 14.7778 15.3973 14.9167 15.119C15.0278 14.8829 15.125 14.6434 15.2083 14.4006C15.2917 14.1579 15.3333 13.9043 15.3333 13.6398C15.3333 13.4315 15.3089 13.2301 15.26 13.0356C15.2111 12.8412 15.1453 12.6468 15.0625 12.4523L15.0417 12.4106C14.9722 12.2579 14.9689 12.0981 15.0317 11.9315C15.0945 11.7648 15.202 11.6468 15.3542 11.5773C15.5069 11.5079 15.6633 11.5045 15.8233 11.5673C15.9833 11.6301 16.0978 11.7376 16.1667 11.8898L16.2708 12.0773C16.382 12.3273 16.462 12.5809 16.5108 12.8381C16.5597 13.0954 16.5839 13.3626 16.5833 13.6398C16.5833 13.9454 16.5486 14.244 16.4792 14.5356C16.4097 14.8273 16.3056 15.112 16.1667 15.3898C16.0556 15.6259 15.9583 15.869 15.875 16.119C15.7917 16.369 15.75 16.6259 15.75 16.8898C15.75 17.0843 15.7708 17.2754 15.8125 17.4631C15.8542 17.6509 15.9167 17.8348 16 18.0148L16.0417 18.119C16.1111 18.2718 16.1147 18.4315 16.0525 18.5981C15.9903 18.7648 15.8825 18.8829 15.7292 18.9523ZM17.8542 11.5773C18.0069 11.5079 18.1633 11.5045 18.3233 11.5673C18.4833 11.6301 18.5978 11.7376 18.6667 11.8898L18.7708 12.0773C18.882 12.3134 18.962 12.5634 19.0108 12.8273C19.0597 13.0912 19.0839 13.362 19.0833 13.6398C19.0833 13.9454 19.0486 14.2476 18.9792 14.5465C18.9097 14.8454 18.8056 15.1331 18.6667 15.4098C18.5556 15.6459 18.4583 15.8856 18.375 16.129C18.2917 16.3723 18.25 16.6256 18.25 16.889C18.25 17.0834 18.2708 17.2745 18.3125 17.4623C18.3542 17.6501 18.4167 17.834 18.5 18.014L18.5417 18.1181C18.5833 18.2015 18.6042 18.2848 18.6042 18.3681C18.6042 18.4515 18.5903 18.5279 18.5625 18.5973C18.5347 18.6668 18.4931 18.7329 18.4375 18.7956C18.382 18.8584 18.3125 18.9104 18.2292 18.9515C18.0764 19.0209 17.92 19.0245 17.76 18.9623C17.6 18.9001 17.4856 18.7926 17.4167 18.6398L17.3125 18.4106C17.2014 18.1745 17.1214 17.9281 17.0725 17.6715C17.0236 17.4148 16.9994 17.1543 17 16.8898C17 16.5843 17.0347 16.2823 17.1042 15.984C17.1736 15.6856 17.2778 15.3973 17.4167 15.119C17.5278 14.8829 17.625 14.6434 17.7083 14.4006C17.7917 14.1579 17.8333 13.9043 17.8333 13.6398C17.8333 13.4315 17.8089 13.2301 17.76 13.0356C17.7111 12.8412 17.6453 12.6468 17.5625 12.4523L17.5417 12.4106C17.4722 12.2579 17.4689 12.0981 17.5317 11.9315C17.5945 11.7648 17.702 11.6468 17.8542 11.5773Z" fill="#171E1D"/>
</svg>
