<svg width="20" height="21" viewBox="0 0 20 21" fill="none" xmlns="http://www.w3.org/2000/svg">
<path d="M11.7292 17.3481C11.5764 17.5287 11.3855 17.6295 11.1567 17.6506C10.9278 17.6718 10.7228 17.6056 10.5417 17.4523L7.35416 14.7856C6.65971 14.2023 6.15971 13.494 5.85416 12.6606C5.5486 11.8273 5.47221 10.9731 5.62499 10.0981L4.45832 9.11898C4.29166 8.9662 4.19805 8.78203 4.17749 8.56648C4.15693 8.35092 4.21555 8.15314 4.35332 7.97314H3.33332V9.63981C3.33332 10.0981 3.16999 10.4906 2.84332 10.8173C2.51666 11.144 2.12443 11.307 1.66666 11.3065V2.97314C2.12499 2.97314 2.51749 3.13648 2.84416 3.46314C3.17082 3.78981 3.33388 4.18203 3.33332 4.63981V6.30648H5.72916L7.02082 4.74398C7.1736 4.56342 7.36471 4.46259 7.59416 4.44148C7.8236 4.42037 8.02832 4.48648 8.20832 4.63981L9.35416 5.59814C10.2014 5.2787 11.0625 5.19537 11.9375 5.34814C12.8125 5.50092 13.5972 5.86898 14.2917 6.45231L17.4792 9.11898C17.6597 9.27176 17.7605 9.46287 17.7817 9.69231C17.8028 9.92176 17.7367 10.1195 17.5833 10.2856L11.7292 17.3481ZM10.9792 15.619L15.7917 9.84814L13.2083 7.72314C12.625 7.25092 11.9619 7.02176 11.2192 7.03564C10.4764 7.04953 9.75055 7.20231 9.04166 7.49398L7.77082 6.45231L6.16666 8.36898L7.41666 9.41064C7.24999 10.1606 7.22916 10.9073 7.35416 11.6506C7.47916 12.394 7.83332 13.0084 8.41666 13.494L10.9792 15.619Z" fill="#171E1D"/>
</svg>
