<svg width="21" height="21" viewBox="0 0 21 21" fill="none" xmlns="http://www.w3.org/2000/svg">
<path d="M5.66662 18.8064C5.20829 18.8064 4.81579 18.6431 4.48912 18.3164C4.16246 17.9898 3.9994 17.5975 3.99996 17.1398V3.80644C3.99996 3.34811 4.16329 2.95561 4.48996 2.62894C4.81662 2.30227 5.20884 2.13922 5.66662 2.13977H17.3333V3.80644H15.6666V5.47311C15.6666 5.70922 15.5866 5.90727 15.4266 6.06727C15.2666 6.22727 15.0688 6.30699 14.8333 6.30644H8.16662C7.93051 6.30644 7.73246 6.22644 7.57246 6.06644C7.41246 5.90644 7.33273 5.70866 7.33329 5.47311V3.80644H5.66662V17.1398H9.04162C8.51384 16.7648 8.09718 16.2889 7.79162 15.7123C7.48607 15.1356 7.33329 14.5003 7.33329 13.8064V9.63977H15.6666V13.8064C15.6666 14.5009 15.5138 15.1364 15.2083 15.7131C14.9027 16.2898 14.4861 16.7653 13.9583 17.1398H17.3333V18.8064H5.66662ZM11.5 16.3064C12.1944 16.3064 12.7847 16.0634 13.2708 15.5773C13.7569 15.0912 14 14.5009 14 13.8064V11.3064H8.99996V13.8064C8.99996 14.5009 9.24301 15.0912 9.72912 15.5773C10.2152 16.0634 10.8055 16.3064 11.5 16.3064ZM11.5 8.80644C11.7361 8.80644 11.9341 8.72644 12.0941 8.56644C12.2541 8.40644 12.3338 8.20866 12.3333 7.97311C12.3333 7.73699 12.2533 7.53894 12.0933 7.37894C11.9333 7.21894 11.7355 7.13922 11.5 7.13977C11.2638 7.13977 11.0658 7.21977 10.9058 7.37977C10.7458 7.53977 10.6661 7.73755 10.6666 7.97311C10.6666 8.20922 10.7466 8.40727 10.9066 8.56727C11.0666 8.72727 11.2644 8.80699 11.5 8.80644Z" fill="#171E1D"/>
</svg>
