<svg width="20" height="22" viewBox="0 0 20 22" fill="none" xmlns="http://www.w3.org/2000/svg">
<path d="M16.6667 10.9732H18.3333V12.7232H16.6667C15.5167 12.7232 14.3833 12.4169 13.3333 11.8482C11.25 12.9857 8.74999 12.9857 6.66666 11.8482C5.61666 12.4169 4.47499 12.7232 3.33332 12.7232H1.66666V10.9732H3.33332C4.49166 10.9732 5.64999 10.5619 6.66666 9.80945C8.69999 11.3057 11.3 11.3057 13.3333 9.80945C14.35 10.5619 15.5083 10.9732 16.6667 10.9732ZM16.6667 5.7232H18.3333V7.4732H16.6667C15.5167 7.4732 14.3833 7.16695 13.3333 6.5982C11.25 7.7357 8.74999 7.7357 6.66666 6.5982C5.61666 7.16695 4.47499 7.4732 3.33332 7.4732H1.66666V5.7232H3.33332C4.49166 5.7232 5.64999 5.31195 6.66666 4.55945C8.69999 6.0557 11.3 6.0557 13.3333 4.55945C14.35 5.31195 15.5083 5.7232 16.6667 5.7232ZM16.6667 16.2232H18.3333V17.9732H16.6667C15.5167 17.9732 14.3833 17.6669 13.3333 17.0982C11.25 18.2357 8.74999 18.2357 6.66666 17.0982C5.61666 17.6669 4.47499 17.9732 3.33332 17.9732H1.66666V16.2232H3.33332C4.49166 16.2232 5.64999 15.8119 6.66666 15.0594C8.69999 16.5557 11.3 16.5557 13.3333 15.0594C14.35 15.8119 15.5083 16.2232 16.6667 16.2232Z" fill="#171E1D"/>
</svg>
