<svg width="21" height="21" viewBox="0 0 21 21" fill="none" xmlns="http://www.w3.org/2000/svg">
<path d="M5.66662 12.1398H7.33329L9.83329 14.6398H8.16662L5.66662 12.1398ZM3.99996 3.80644H4.83329V2.9731C4.83329 2.75209 4.92109 2.54013 5.07737 2.38385C5.23365 2.22757 5.44561 2.13977 5.66662 2.13977H8.99996C9.22097 2.13977 9.43293 2.22757 9.58921 2.38385C9.74549 2.54013 9.83329 2.75209 9.83329 2.9731V3.80644H11.5V2.9731C11.5 2.75209 11.5878 2.54013 11.744 2.38385C11.9003 2.22757 12.1123 2.13977 12.3333 2.13977H15.6666C15.8876 2.13977 16.0996 2.22757 16.2559 2.38385C16.4122 2.54013 16.5 2.75209 16.5 2.9731V3.80644H17.3333C17.7753 3.80644 18.1992 3.98203 18.5118 4.29459C18.8244 4.60715 19 5.03108 19 5.4731V16.3064C19 16.7485 18.8244 17.1724 18.5118 17.4849C18.1992 17.7975 17.7753 17.9731 17.3333 17.9731V18.8064H14.8333V17.9731H6.49996V18.8064H3.99996V17.9731C3.55793 17.9731 3.13401 17.7975 2.82145 17.4849C2.50888 17.1724 2.33329 16.7485 2.33329 16.3064V5.4731C2.33329 5.03108 2.50888 4.60715 2.82145 4.29459C3.13401 3.98203 3.55793 3.80644 3.99996 3.80644ZM15.6666 6.30644C15.8876 6.30644 16.0996 6.39423 16.2559 6.55051C16.4122 6.7068 16.5 6.91876 16.5 7.13977C16.5 7.36078 16.4122 7.57275 16.2559 7.72903C16.0996 7.88531 15.8876 7.9731 15.6666 7.9731C15.4456 7.9731 15.2336 7.88531 15.0774 7.72903C14.9211 7.57275 14.8333 7.36078 14.8333 7.13977C14.8333 6.91876 14.9211 6.7068 15.0774 6.55051C15.2336 6.39423 15.4456 6.30644 15.6666 6.30644ZM12.3333 6.30644C12.5543 6.30644 12.7663 6.39423 12.9225 6.55051C13.0788 6.7068 13.1666 6.91876 13.1666 7.13977C13.1666 7.36078 13.0788 7.57275 12.9225 7.72903C12.7663 7.88531 12.5543 7.9731 12.3333 7.9731C12.1123 7.9731 11.9003 7.88531 11.744 7.72903C11.5878 7.57275 11.5 7.36078 11.5 7.13977C11.5 6.91876 11.5878 6.7068 11.744 6.55051C11.9003 6.39423 12.1123 6.30644 12.3333 6.30644ZM17.3333 5.4731H3.99996V8.80644H17.3333V5.4731ZM3.99996 16.3064H17.3333V10.4731H3.99996V16.3064ZM5.66662 6.30644C5.88764 6.30644 6.0996 6.39423 6.25588 6.55051C6.41216 6.7068 6.49996 6.91876 6.49996 7.13977C6.49996 7.36078 6.41216 7.57275 6.25588 7.72903C6.0996 7.88531 5.88764 7.9731 5.66662 7.9731C5.44561 7.9731 5.23365 7.88531 5.07737 7.72903C4.92109 7.57275 4.83329 7.36078 4.83329 7.13977C4.83329 6.91876 4.92109 6.7068 5.07737 6.55051C5.23365 6.39423 5.44561 6.30644 5.66662 6.30644ZM11.5 12.1398H13.1666L15.6666 14.6398H14L11.5 12.1398Z" fill="#171E1D"/>
</svg>
