<svg width="21" height="21" viewBox="0 0 21 21" fill="none" xmlns="http://www.w3.org/2000/svg">
<g clip-path="url(#clip0_69_1765)">
<path d="M19.0833 9.22314H18.2396L16.0693 4.34033C15.9711 4.11942 15.8109 3.93172 15.6082 3.79999C15.4054 3.66826 15.1689 3.59815 14.9271 3.59814H5.73959C5.49783 3.59815 5.26125 3.66826 5.05852 3.79999C4.8558 3.93172 4.69562 4.11942 4.59741 4.34033L2.42709 9.22314H1.58334C1.41758 9.22314 1.25861 9.28899 1.1414 9.4062C1.02419 9.52341 0.958344 9.68238 0.958344 9.84814C0.958344 10.0139 1.02419 10.1729 1.1414 10.2901C1.25861 10.4073 1.41758 10.4731 1.58334 10.4731H2.20834V16.7231C2.20834 17.0547 2.34004 17.3726 2.57446 17.607C2.80888 17.8414 3.12682 17.9731 3.45834 17.9731H5.33334C5.66486 17.9731 5.98281 17.8414 6.21723 17.607C6.45165 17.3726 6.58334 17.0547 6.58334 16.7231V15.4731H14.0833V16.7231C14.0833 17.0547 14.215 17.3726 14.4495 17.607C14.6839 17.8414 15.0018 17.9731 15.3333 17.9731H17.2083C17.5399 17.9731 17.8578 17.8414 18.0922 17.607C18.3266 17.3726 18.4583 17.0547 18.4583 16.7231V10.4731H19.0833C19.2491 10.4731 19.4081 10.4073 19.5253 10.2901C19.6425 10.1729 19.7083 10.0139 19.7083 9.84814C19.7083 9.68238 19.6425 9.52341 19.5253 9.4062C19.4081 9.28899 19.2491 9.22314 19.0833 9.22314ZM5.73959 4.84814H14.9271L16.8716 9.22314H3.79506L5.73959 4.84814ZM5.33334 16.7231H3.45834V15.4731H5.33334V16.7231ZM15.3333 16.7231V15.4731H17.2083V16.7231H15.3333ZM17.2083 14.2231H3.45834V10.4731H17.2083V14.2231ZM4.70834 12.3481C4.70834 12.1824 4.77419 12.0234 4.8914 11.9062C5.00861 11.789 5.16758 11.7231 5.33334 11.7231H6.58334C6.7491 11.7231 6.90807 11.789 7.02529 11.9062C7.1425 12.0234 7.20834 12.1824 7.20834 12.3481C7.20834 12.5139 7.1425 12.6729 7.02529 12.7901C6.90807 12.9073 6.7491 12.9731 6.58334 12.9731H5.33334C5.16758 12.9731 5.00861 12.9073 4.8914 12.7901C4.77419 12.6729 4.70834 12.5139 4.70834 12.3481ZM13.4583 12.3481C13.4583 12.1824 13.5242 12.0234 13.6414 11.9062C13.7586 11.789 13.9176 11.7231 14.0833 11.7231H15.3333C15.4991 11.7231 15.6581 11.789 15.7753 11.9062C15.8925 12.0234 15.9583 12.1824 15.9583 12.3481C15.9583 12.5139 15.8925 12.6729 15.7753 12.7901C15.6581 12.9073 15.4991 12.9731 15.3333 12.9731H14.0833C13.9176 12.9731 13.7586 12.9073 13.6414 12.7901C13.5242 12.6729 13.4583 12.5139 13.4583 12.3481Z" fill="black"/>
</g>
<defs>
<clipPath id="clip0_69_1765">
<rect width="20" height="20" fill="white" transform="translate(0.333344 0.473145)"/>
</clipPath>
</defs>
</svg>
