<svg width="21" height="21" viewBox="0 0 21 21" fill="none" xmlns="http://www.w3.org/2000/svg">
<g clip-path="url(#clip0_69_1782)">
<path d="M17.7213 4.24966L12.9807 2.82779L15.3244 1.65591C15.4725 1.58132 15.5848 1.45097 15.6368 1.29355C15.6887 1.13612 15.676 0.964505 15.6014 0.816461C15.5268 0.668416 15.3965 0.556066 15.239 0.504128C15.0816 0.452189 14.91 0.464915 14.7619 0.539508L11.1354 2.35201C9.50552 2.39436 7.95658 3.07129 6.8184 4.23866C5.68021 5.40603 5.0427 6.9716 5.04163 8.60201V16.7231C5.04163 16.8889 5.10747 17.0478 5.22468 17.165C5.34189 17.2823 5.50087 17.3481 5.66663 17.3481C5.83239 17.3481 5.99136 17.2823 6.10857 17.165C6.22578 17.0478 6.29163 16.8889 6.29163 16.7231V14.2231H7.54163V18.5981C7.54163 18.9296 7.67332 19.2476 7.90774 19.482C8.14216 19.7164 8.46011 19.8481 8.79163 19.8481H13.7916C14.1231 19.8481 14.4411 19.7164 14.6755 19.482C14.9099 19.2476 15.0416 18.9296 15.0416 18.5981V8.5981C15.0404 7.71231 14.7261 6.85547 14.1542 6.17899C13.5824 5.50251 12.7898 5.04993 11.9166 4.90123V3.81294L17.3619 5.44654C17.4411 5.47234 17.5247 5.48204 17.6077 5.47509C17.6907 5.46813 17.7715 5.44465 17.8453 5.40603C17.9191 5.36741 17.9844 5.31443 18.0375 5.2502C18.0905 5.18597 18.1301 5.11178 18.1541 5.032C18.1781 4.95223 18.1858 4.86847 18.1769 4.78565C18.1681 4.70282 18.1427 4.62261 18.1024 4.54973C18.0621 4.47684 18.0076 4.41275 17.9422 4.36122C17.8767 4.30969 17.8016 4.27176 17.7213 4.24966ZM6.29163 12.9731V8.5981C6.29314 7.38083 6.73818 6.20583 7.54346 5.293C8.34873 4.38016 9.45905 3.79205 10.6666 3.63873V4.90123C9.79341 5.04993 9.00086 5.50251 8.42902 6.17899C7.85719 6.85547 7.54287 7.71231 7.54163 8.5981V12.9731H6.29163ZM13.7916 18.5981H8.79163V14.2231H13.7916V18.5981ZM13.7916 8.5981V12.9731H8.79163V8.5981C8.79163 7.93506 9.05502 7.29918 9.52386 6.83033C9.9927 6.36149 10.6286 6.0981 11.2916 6.0981C11.9547 6.0981 12.5906 6.36149 13.0594 6.83033C13.5282 7.29918 13.7916 7.93506 13.7916 8.5981Z" fill="#171E1D"/>
</g>
<defs>
<clipPath id="clip0_69_1782">
<rect width="20" height="20" fill="white" transform="translate(0.666626 0.473145)"/>
</clipPath>
</defs>
</svg>
