<svg width="13" height="14" viewBox="0 0 13 14" fill="none" xmlns="http://www.w3.org/2000/svg">
<path fill-rule="evenodd" clip-rule="evenodd" d="M7.01493 1.31805C6.96954 1.21508 6.89692 1.12787 6.80567 1.06675C6.71441 1.00563 6.60834 0.973145 6.5 0.973145C6.39166 0.973145 6.28559 1.00563 6.19433 1.06675C6.10308 1.12787 6.03046 1.21508 5.98507 1.31805L4.35748 5.01029L0.500606 5.48933C0.392998 5.50263 0.291283 5.54792 0.207498 5.61984C0.123713 5.69177 0.0613656 5.78731 0.0278354 5.89516C-0.00569488 6.00301 -0.00900466 6.11866 0.0182977 6.22842C0.0456001 6.33818 0.102372 6.43746 0.181894 6.5145L3.03443 9.27478L2.27734 13.2638C2.25631 13.375 2.26614 13.4902 2.30567 13.5957C2.34519 13.7013 2.41276 13.7928 2.50038 13.8594C2.588 13.926 2.69201 13.965 2.80011 13.9717C2.90822 13.9784 3.0159 13.9525 3.11042 13.8972L6.5 11.911L9.88958 13.8972C9.98416 13.9528 10.092 13.9788 10.2002 13.9721C10.3085 13.9655 10.4127 13.9265 10.5004 13.8598C10.5882 13.7931 10.6558 13.7014 10.6953 13.5957C10.7348 13.4899 10.7445 13.3746 10.7232 13.2632L9.96614 9.27537L12.8181 6.5145C12.8976 6.43746 12.9544 6.33818 12.9817 6.22842C13.009 6.11866 13.0057 6.00301 12.9722 5.89516C12.9386 5.78731 12.8763 5.69177 12.7925 5.61984C12.7087 5.54792 12.607 5.50263 12.4994 5.48933L8.64195 5.0097L7.01493 1.31805Z" fill="#FAC50A"/>
</svg>
