<svg width="48" height="48" viewBox="0 0 48 48" fill="none" xmlns="http://www.w3.org/2000/svg">
<circle cx="37.1761" cy="17.3962" r="10.575" fill="#FAC50A"/>
<path d="M43.7261 20.9239C41.7786 19.2651 39.2468 18.2035 36.5203 18.2035C34.9623 18.2035 33.4692 18.5352 32.041 19.1324L31.5866 19.3315L31.3919 18.867C30.8076 17.5399 29.9637 16.4119 28.925 15.4166C28.4706 15.0185 28.0162 14.6868 27.5618 14.355C26.6529 13.7578 25.6142 13.2933 24.5756 13.0279C23.7316 12.8289 22.8877 12.6962 21.9789 12.6962C16.8504 12.6962 12.501 16.4119 11.6571 21.5875L11.5921 22.1183L11.0728 22.0519C10.6184 21.9856 10.099 21.9192 9.57971 21.9192C4.71092 21.9192 0.750977 25.9668 0.750977 30.9432C0.750977 33.7301 1.9844 36.3178 4.12667 38.043L4.19158 38.1093C6.00926 39.9009 8.34628 40.8962 10.878 40.8962H36.6501C38.7924 40.8962 40.9347 40.2326 42.7524 39.0383C45.8684 36.915 47.751 33.3983 47.751 29.5498C47.6861 26.0995 46.128 23.0472 43.7261 20.9239Z" fill="#F4F4F4"/>
</svg>
