<svg width="41" height="41" viewBox="0 0 41 41" fill="none" xmlns="http://www.w3.org/2000/svg">
<circle cx="31.751" cy="14.9462" r="9" fill="#FAC50A"/>
<path d="M37.3256 17.9485C35.6681 16.5368 33.5134 15.6332 31.193 15.6332C29.867 15.6332 28.5963 15.9156 27.3808 16.4238L26.9941 16.5932L26.8283 16.1979C26.3311 15.0685 25.6129 14.1085 24.7289 13.2615C24.3421 12.9226 23.9554 12.6403 23.5687 12.3579C22.7952 11.8497 21.9112 11.4544 21.0272 11.2285C20.309 11.0591 19.5908 10.9462 18.8173 10.9462C14.4526 10.9462 10.751 14.1085 10.0327 18.5132L9.9775 18.965L9.53551 18.9085C9.14877 18.8521 8.70678 18.7956 8.26479 18.7956C4.12114 18.7956 0.750977 22.2403 0.750977 26.4756C0.750977 28.8473 1.8007 31.0497 3.6239 32.5179L3.67915 32.5744C5.22611 34.0991 7.21507 34.9462 9.36976 34.9462H31.3035C33.1267 34.9462 34.9499 34.3815 36.4968 33.365C39.1488 31.5579 40.751 28.565 40.751 25.2897C40.6957 22.3532 39.3698 19.7556 37.3256 17.9485Z" fill="#F4F4F4"/>
</svg>
