<svg width="7" height="11" viewBox="0 0 7 11" fill="none" xmlns="http://www.w3.org/2000/svg">
<path d="M4.97016 3.1382C4.88655 3.57605 4.46382 3.86321 4.02598 3.77959C3.58813 3.69598 3.30097 3.27325 3.38459 2.8354C3.4682 2.39756 3.89093 2.1104 4.32877 2.19401C4.76662 2.27763 5.05378 2.70035 4.97016 3.1382Z" fill="#00C29F"/>
<path d="M1.65038 10.3776C0.36874 9.93029 -0.312355 8.52749 0.139926 7.23168C0.262926 6.87928 0.33941 6.67593 0.457491 6.32184C0.522282 6.12456 1.04826 5.23874 1.4038 4.99694C1.97415 4.60905 2.18871 4.57449 2.74036 4.48156C3.40469 4.36965 4.21574 4.65144 4.80436 4.40086C5.20805 4.22986 5.52305 3.89327 5.66826 3.47722C5.68211 3.43755 5.69371 3.40009 5.70342 3.36272C5.71027 3.3378 5.71612 3.31255 5.72165 3.28718C5.72729 3.26147 5.73228 3.23554 5.73649 3.2097C5.74616 3.14913 5.7524 3.08885 5.75508 3.03032C5.77846 2.5108 5.54419 2.01839 5.12863 1.71366C5.08212 1.67947 5.03182 1.64659 4.9786 1.61679C4.95604 1.60406 4.93292 1.59187 4.90957 1.58036C4.88655 1.56895 4.86341 1.55789 4.83959 1.5477C4.8047 1.53216 4.76857 1.51805 4.72966 1.50447C4.69075 1.49089 4.65336 1.47933 4.61637 1.46979C4.59172 1.46306 4.56672 1.45732 4.5416 1.45192C4.51615 1.44641 4.49047 1.44156 4.46489 1.43749C4.44559 1.43449 4.42618 1.43183 4.40742 1.4294C4.38867 1.42697 4.36968 1.4252 4.35123 1.424C4.3329 1.42246 4.3149 1.42104 4.29689 1.42074C4.25976 1.419 4.22549 1.41863 4.19219 1.41972C3.66885 1.43228 3.17488 1.72099 2.90387 2.17316L2.90329 2.17482L2.90238 2.17637C2.8959 2.18646 2.88849 2.1992 2.88073 2.21295C2.86795 2.23579 2.85572 2.25919 2.84414 2.28283C2.83268 2.30613 2.82154 2.32954 2.81129 2.35364C2.8076 2.36207 2.80403 2.37018 2.80068 2.37873C2.67481 2.5274 2.46804 2.58463 2.2857 2.52099C2.06577 2.44422 1.93663 2.22076 1.97812 1.98954C2.01191 1.9097 2.05066 1.83048 2.09266 1.75464L2.09584 1.74976C2.68503 0.69546 3.93199 0.216305 5.05965 0.609896C5.67821 0.825796 6.17553 1.27463 6.46038 1.87331C6.74555 2.47212 6.78218 3.1461 6.56389 3.7715L4.79526 8.83873C4.34298 10.1345 2.93203 10.825 1.65038 10.3776Z" fill="#00C29F"/>
</svg>
