<svg width="36" height="29" viewBox="0 0 36 29" fill="none" xmlns="http://www.w3.org/2000/svg">
<path d="M21.7208 3.90994C21.7208 3.44302 21.5353 2.99522 21.2051 2.66506C20.8749 2.3349 20.4272 2.14941 19.9602 2.14941H16.4392C15.9723 2.14941 15.5245 2.3349 15.1943 2.66506C14.8641 2.99522 14.6787 3.44302 14.6787 3.90994V14.4731C14.6787 14.94 14.8641 15.3878 15.1943 15.718C15.5245 16.0481 15.9723 16.2336 16.4392 16.2336H19.9602C20.4272 16.2336 20.8749 16.0481 21.2051 15.718C21.5353 15.3878 21.7208 14.94 21.7208 14.4731V10.952C21.7208 10.4851 21.5353 10.0373 21.2051 9.70716C20.8749 9.377 20.4272 9.19151 19.9602 9.19151H14.6787M2.35498 2.14941H6.75629C7.45667 2.14941 8.12837 2.42764 8.62361 2.92288C9.11886 3.41813 9.39708 4.08982 9.39708 4.7902V6.55073C9.39708 7.25111 9.11886 7.9228 8.62361 8.41805C8.12837 8.91329 7.45667 9.19151 6.75629 9.19151M6.75629 9.19151H4.11551M6.75629 9.19151C7.45667 9.19151 8.12837 9.46974 8.62361 9.96498C9.11886 10.4602 9.39708 11.1319 9.39708 11.8323V13.5928C9.39708 14.2932 9.11886 14.9649 8.62361 15.4601C8.12837 15.9554 7.45667 16.2336 6.75629 16.2336H2.35498M2.35498 21.5152C2.35498 24.4324 9.4499 26.7968 18.1997 26.7968C26.9495 26.7968 34.0444 24.4324 34.0444 21.5152M27.0023 5.67046V12.7126C27.0023 13.6464 27.3733 14.542 28.0336 15.2023C28.694 15.8626 29.5895 16.2336 30.5234 16.2336C31.4572 16.2336 32.3528 15.8626 33.0131 15.2023C33.6735 14.542 34.0444 13.6464 34.0444 12.7126V5.67046C34.0444 4.73662 33.6735 3.84103 33.0131 3.18071C32.3528 2.52038 31.4572 2.14941 30.5234 2.14941C29.5895 2.14941 28.694 2.52038 28.0336 3.18071C27.3733 3.84103 27.0023 4.73662 27.0023 5.67046Z" stroke="white" stroke-width="3.52105" stroke-linecap="round" stroke-linejoin="round"/>
</svg>
