<svg width="13" height="20" viewBox="0 0 13 20" fill="none" xmlns="http://www.w3.org/2000/svg">
<path d="M9.82925 5.66722C9.67639 6.46766 8.90359 6.99263 8.10316 6.83977C7.30272 6.68691 6.77776 5.91411 6.93062 5.11367C7.08348 4.31324 7.85627 3.78827 8.65671 3.94113C9.45715 4.09399 9.98211 4.86679 9.82925 5.66722Z" fill="#00C29F"/>
<path d="M3.76027 18.9018C1.41727 18.084 0.17214 15.5195 0.998966 13.1506C1.22383 12.5064 1.36365 12.1346 1.57951 11.4873C1.69796 11.1267 2.65952 9.50727 3.30949 9.06524C4.35217 8.35613 4.74441 8.29294 5.75289 8.12306C6.96736 7.91847 8.45006 8.43362 9.52614 7.97552C10.2641 7.66291 10.84 7.04759 11.1055 6.287C11.1308 6.21448 11.152 6.14599 11.1697 6.07767C11.1823 6.03213 11.193 5.98595 11.2031 5.93957C11.2134 5.89258 11.2225 5.84517 11.2302 5.79794C11.2479 5.6872 11.2593 5.57701 11.2642 5.47001C11.3069 4.52025 10.8786 3.62008 10.1189 3.06298C10.0339 3.00049 9.94197 2.94037 9.84468 2.8859C9.80344 2.86262 9.76117 2.84034 9.71848 2.81929C9.67639 2.79845 9.63409 2.77821 9.59055 2.7596C9.52676 2.73118 9.4607 2.70539 9.38958 2.68056C9.31845 2.65573 9.25009 2.63461 9.18247 2.61716C9.1374 2.60485 9.0917 2.59437 9.04578 2.58449C8.99926 2.57441 8.95231 2.56554 8.90555 2.55811C8.87027 2.55263 8.83477 2.54776 8.80049 2.54332C8.7662 2.53887 8.73149 2.53564 8.69777 2.53344C8.66426 2.53064 8.63135 2.52804 8.59841 2.52748C8.53055 2.52431 8.4679 2.52363 8.40702 2.52563C7.45028 2.54858 6.54725 3.07638 6.05181 3.903L6.05074 3.90605L6.04908 3.90889C6.03723 3.92731 6.02369 3.95062 6.00951 3.97575C5.98614 4.01751 5.96377 4.06029 5.94261 4.1035C5.92165 4.14609 5.9013 4.1889 5.88255 4.23294C5.87581 4.24837 5.86929 4.26318 5.86316 4.27882C5.63305 4.5506 5.25505 4.65522 4.92171 4.53888C4.51966 4.39855 4.28357 3.99003 4.35942 3.56732C4.42118 3.42137 4.49202 3.27654 4.56882 3.13789L4.57463 3.12898C5.65173 1.20159 7.93134 0.325631 9.99284 1.04517C11.1237 1.43986 12.0328 2.26038 12.5535 3.35485C13.0749 4.44954 13.1418 5.68167 12.7428 6.82498L9.50951 16.0885C8.68269 18.4574 6.10328 19.7196 3.76027 18.9018Z" fill="#00C29F"/>
</svg>
