<svg width="10" height="12" viewBox="0 0 10 12" fill="none" xmlns="http://www.w3.org/2000/svg">
<path fill-rule="evenodd" clip-rule="evenodd" d="M7.92825 2.33684C7.05728 1.46587 5.876 0.976562 4.64426 0.976563C3.41253 0.976563 2.23124 1.46587 1.36027 2.33684C0.489305 3.2078 9.17714e-09 4.38909 0 5.62082C-9.17714e-09 6.85256 0.489305 8.03385 1.36027 8.90481L4.2702 11.8147C4.36942 11.9139 4.50397 11.9697 4.64426 11.9697C4.78455 11.9697 4.9191 11.9139 5.01832 11.8147L7.92825 8.90481C8.35951 8.47356 8.70161 7.96158 8.93501 7.39811C9.1684 6.83464 9.28853 6.23072 9.28853 5.62082C9.28853 5.01093 9.1684 4.40701 8.93501 3.84354C8.70161 3.28007 8.35951 2.76809 7.92825 2.33684ZM3.85064 5.62082C3.85064 5.41034 3.93426 5.20848 4.08309 5.05965C4.23192 4.91082 4.43378 4.82721 4.64426 4.82721H4.64955C4.86003 4.82721 5.06189 4.91082 5.21073 5.05965C5.35956 5.20848 5.44317 5.41034 5.44317 5.62082V5.62612C5.44317 5.8366 5.35956 6.03846 5.21073 6.18729C5.06189 6.33612 4.86003 6.41973 4.64955 6.41973H4.64426C4.43378 6.41973 4.23192 6.33612 4.08309 6.18729C3.93426 6.03846 3.85064 5.8366 3.85064 5.62612V5.62082Z" fill="#787878"/>
</svg>
