<svg width="17" height="17" viewBox="0 0 17 17" fill="none" xmlns="http://www.w3.org/2000/svg">
<path fill-rule="evenodd" clip-rule="evenodd" d="M8.65099 0.88262C8.59501 0.755635 8.50545 0.648092 8.39292 0.572713C8.28038 0.497335 8.14957 0.457275 8.01596 0.457275C7.88236 0.457275 7.75154 0.497335 7.63901 0.572713C7.52647 0.648092 7.43691 0.755635 7.38094 0.88262L5.37375 5.43599L0.61736 6.02675C0.484655 6.04315 0.359217 6.09901 0.255891 6.1877C0.152566 6.2764 0.0756776 6.39422 0.0343273 6.52722C-0.00702307 6.66023 -0.0111048 6.80285 0.0225652 6.93821C0.0562352 7.07357 0.126247 7.196 0.224316 7.29101L3.74213 10.6951L2.80848 15.6144C2.78254 15.7516 2.79466 15.8936 2.84341 16.0238C2.89215 16.1539 2.97547 16.2667 3.08353 16.3489C3.19158 16.431 3.31985 16.4791 3.45317 16.4874C3.58649 16.4956 3.71928 16.4638 3.83585 16.3955L8.01596 13.9461L12.1961 16.3955C12.3127 16.4641 12.4457 16.4961 12.5792 16.4879C12.7127 16.4798 12.8412 16.4317 12.9494 16.3494C13.0576 16.2671 13.141 16.1541 13.1897 16.0237C13.2384 15.8933 13.2504 15.751 13.2241 15.6137L12.2905 10.6958L15.8076 7.29101C15.9057 7.196 15.9757 7.07357 16.0094 6.93821C16.043 6.80285 16.0389 6.66023 15.9976 6.52722C15.9562 6.39422 15.8794 6.2764 15.776 6.1877C15.6727 6.09901 15.5473 6.04315 15.4146 6.02675L10.6575 5.43525L8.65099 0.88262Z" fill="#FAC50A"/>
</svg>
